<svg version="1.2" xmlns="http://www.w3.org/2000/svg" viewBox="0 0 250 250" width="60" height="60">
	<style>
		tspan { white-space:pre } 
		.s0 { fill: #7928ca } 
		.t1 { font-size: 36px;fill: #000000;font-weight: 700;font-family: "Poppins-Bold", "Poppins" } 
	</style>
	<path class="s0" d="m134 82.25c-9 0-9 9-9 9 0 0 0-9-9-9h-42.5c-1.38 0-2.5 1.12-2.5 2.5v71.5c0 1.38 1.12 2.5 2.5 2.5h38c3.6 0 4.32 5.76 4.47 8.07 0.03 0.52 0.47 0.93 1 0.93h16.06c0.53 0 0.97-0.41 1-0.93 0.15-2.31 0.87-8.07 4.47-8.07h38c1.38 0 2.5-1.12 2.5-2.5v-71.5c0-1.38-1.12-2.5-2.5-2.5zm31.5 61.75c0 0.69-0.56 1.25-1.25 1.25h-30.25c-9 0-9 9-9 9 0 0 0-9-9-9h-30.25c-0.69 0-1.25-0.56-1.25-1.25v-47c0-0.69 0.56-1.25 1.25-1.25h25.75c3.6 0 4.32 5.76 4.47 8.06 0.03 0.53 0.47 0.94 1 0.94h16.06c0.54 0 0.97-0.41 1-0.94 0.15-2.3 0.87-8.06 4.47-8.06h25.75c0.69 0 1.25 0.56 1.25 1.25z"/>
	<text id="JKD" style="transform: matrix(1,0,0,1,89,108)" >
		<tspan x="0" y="28" class="t1">J</tspan><tspan  y="28" class="t1">K</tspan><tspan  y="28" class="t1">D
</tspan>
	</text>
</svg>