<svg height="48" viewBox="0 -960 6400 1920" width="82" fill="#e8eaed" version="1.1" id="svg1" sodipodi:docname="logo 1.svg" xml:space="preserve" inkscape:version="1.3 (0e150ed6c4, 2023-07-21)" xmlns:inkscape="http://www.inkscape.org/namespaces/inkscape" xmlns:sodipodi="http://sodipodi.sourceforge.net/DTD/sodipodi-0.dtd" xmlns="http://www.w3.org/2000/svg" xmlns:svg="http://www.w3.org/2000/svg"><defs id="defs1"><clipPath id="clip0"><rect x="1819" y="81" width="629" height="166" id="rect1"></rect></clipPath><clipPath id="clip1"><rect x="1829" y="80" width="634" height="155" id="rect2"></rect></clipPath><clipPath id="clip2"><rect x="1829" y="80" width="634" height="155" id="rect3"></rect></clipPath></defs><sodipodi:namedview id="namedview1" pagecolor="#ffffff" bordercolor="#000000" borderopacity="0.25" inkscape:showpageshadow="2" inkscape:pageopacity="0.0" inkscape:pagecheckerboard="0" inkscape:deskcolor="#d1d1d1" inkscape:zoom="2.9427083" inkscape:cx="93.281418" inkscape:cy="35.681417" inkscape:window-width="1440" inkscape:window-height="830" inkscape:window-x="-6" inkscape:window-y="-6" inkscape:window-maximized="1" inkscape:current-layer="g2"></sodipodi:namedview><g style="overflow:hidden;fill:#000000;fill-opacity:1" id="g2" transform="matrix(12.210901,0,0,11.39928,-53.145918,-848.22675)"><g id="g38" transform="matrix(0.84690738,0,0,0.84690738,-1544.4413,-61.41962)" clip-path="url(#clipPath47)" style="fill:#0066ff;fill-opacity:1"><path d="m 69.8996,152.732 c -2.4582,-0.642 -5.2372,-1.924 -6.199,-2.993 C 59.5322,145.143 5.45088,20.8416 0.534401,4.59584 L -0.10688,2.1376 H 14.215 28.5368 L 39.332,26.5063 c 5.8781,13.36 14.4286,32.7054 18.9176,42.9659 9.94,22.4448 18.3836,39.5458 19.6659,39.5458 0.962,0 9.4056,-17.3149 18.3835,-38.1566 l 6.199,-14.2149 H 89.7793 77.1675 L 74.816,48.9512 C 73.4268,44.6758 71.7165,39.1181 70.9683,36.553 l -1.3895,-4.489 h 21.6969 21.5893 l 6.306,-14.9632 6.199,-14.9632 h 14.857 c 8.123,0 14.749,0.21376 14.749,0.5344 0,3.95457 -46.386,111.796 -56.8601,132.211 -6.3058,12.398 -9.6192,16.245 -15.3907,17.849 -4.8097,1.389 -6.7336,1.282 -12.8256,0 z" fill="#276f8b" transform="matrix(1.01325,0,0,-1,1829.88,234.899)" id="path3" style="fill: rgb(121, 40, 202); fill-opacity: 1; opacity: 1; stroke-width: 2px; stroke: rgb(121, 40, 202); visibility: visible;" data-index="0"></path><path d="m 382.951,152.839 c -12.612,-2.352 -24.903,-8.444 -32.598,-16.353 -12.613,-12.826 -14.109,-34.095 -3.314,-46.7067 8.017,-9.2987 19.773,-15.1769 47.669,-23.4069 22.338,-6.7333 32.493,-10.6879 36.125,-14.1082 2.994,-2.8856 3.313,-3.6338 2.886,-7.9089 -1.283,-10.9018 -7.482,-14.6425 -25.651,-15.2838 -28.109,-1.069 -39.76,4.9164 -44.569,23.0861 l -1.282,4.4889 h -14.751 -14.748 l 0.856,-5.0235 c 5.77,-36.8735 39.011,-56.86012 83.258,-50.12668 13.895,2.13759 23.942,6.73346 33.347,15.39078 9.191,8.5504 11.543,14.0013 11.543,26.6131 0,12.8256 -2.565,20.0935 -9.618,27.1476 -7.377,7.3746 -17.102,11.7566 -43.928,19.6658 -33.242,9.8334 -43.607,15.2834 -41.898,21.9104 1.174,4.382 7.374,9.192 14.321,11.116 8.657,2.458 27.255,2.565 35.377,0.213 8.873,-2.565 13.682,-8.657 13.682,-17.1 v -4.917 h 14.964 14.961 v 4.596 c 0,5.558 -2.243,14.108 -5.343,20.521 -5.022,10.367 -17.956,19.452 -34.203,24.048 -9.191,2.565 -28.321,3.634 -37.086,2.138 z" fill="#276f8b" transform="matrix(1.01325,0,0,-1,1829.88,234.899)" id="path4" style="fill: rgb(121, 40, 202); fill-opacity: 1; opacity: 1; visibility: visible;" data-index="1"></path><path d="m 223.7,151.128 c -19.238,-4.168 -38.584,-17.849 -48.31,-33.987 -25.972,-43.3937 -6.413,-96.62 41.577,-112.8658 9.939,-3.313279 27.895,-4.06144 39.118,-1.6032 16.566,3.63393 31.957,12.8256 42.43,25.5443 7.696,9.5123 11.438,16.9938 11.438,23.4067 v 5.0235 h -13.895 -13.895 l -2.565,-5.1302 c -7.803,-15.3907 -29.926,-25.9719 -47.347,-22.7656 -27.683,5.0233 -45.424,31.1022 -39.76,58.036 5.344,25.4373 31.102,42.8593 55.685,37.7283 3.847,-0.748 8.657,-2.244 10.687,-3.313 6.52,-3.313 16.674,-11.009 20.093,-15.391 l 3.421,-4.275 h 13.895 14 l -0.64,3.848 c -1.069,6.306 -7.056,15.284 -16.887,25.223 -7.695,7.696 -10.795,9.94 -19.238,14.002 -16.033,7.802 -33.668,10.047 -49.807,6.519 z" fill="#276f8b" transform="matrix(1.01325,0,0,-1,1829.88,234.899)" id="path5" style="fill: rgb(121, 40, 202); fill-opacity: 1; opacity: 1; visibility: visible;" data-index="2"></path><path d="M 494.855,76.4193 V 0 l 53.012,0.21376 53.012,0.320641 4.169,13.894399 c 2.243,7.6954 4.169,14.0014 4.169,14.215 0,0.1069 -18.704,0.2138 -41.577,0.2138 -36.446,0 -41.898,0.2139 -43.286,1.71 -1.496,1.4964 -1.712,8.5505 -1.712,61.9907 V 152.839 H 508.75 494.855 Z" fill="#276f8b" transform="matrix(1.01325,0,0,-1,1829.88,234.899)" id="path6" style="fill: rgb(121, 40, 202); fill-opacity: 1; opacity: 1; visibility: visible;" data-index="3"></path></g></g></svg>